<?xml version="1.0" encoding="UTF-8" standalone="no"?>
<!-- Created with Inkscape (http://www.inkscape.org/) -->

<svg
   width="210mm"
   height="297mm"
   viewBox="0 0 210 297"
   version="1.1"
   id="svg5"
   inkscape:version="1.1.2 (b8e25be833, 2022-02-05)"
   sodipodi:docname="jl_logo.svg"
   xmlns:inkscape="http://www.inkscape.org/namespaces/inkscape"
   xmlns:sodipodi="http://sodipodi.sourceforge.net/DTD/sodipodi-0.dtd"
   xmlns:xlink="http://www.w3.org/1999/xlink"
   xmlns="http://www.w3.org/2000/svg"
   xmlns:svg="http://www.w3.org/2000/svg">
  <sodipodi:namedview
     id="namedview7"
     pagecolor="#505050"
     bordercolor="#ffffff"
     borderopacity="1"
     inkscape:pageshadow="0"
     inkscape:pageopacity="0"
     inkscape:pagecheckerboard="1"
     inkscape:document-units="mm"
     showgrid="false"
     inkscape:zoom="5.8967685"
     inkscape:cx="290.92205"
     inkscape:cy="398.18419"
     inkscape:window-width="1920"
     inkscape:window-height="974"
     inkscape:window-x="-11"
     inkscape:window-y="-11"
     inkscape:window-maximized="1"
     inkscape:current-layer="g11543" />
  <defs
     id="defs2">
    <linearGradient
       inkscape:collect="always"
       id="linearGradient15490">
      <stop
         style="stop-color:#4c6df2;stop-opacity:1;"
         offset="0"
         id="stop15486" />
      <stop
         style="stop-color:#3fcadf;stop-opacity:1"
         offset="1"
         id="stop15488" />
    </linearGradient>
    <linearGradient
       id="linearGradient28430"
       inkscape:swatch="solid">
      <stop
         style="stop-color:#000000;stop-opacity:1;"
         offset="0"
         id="stop28428" />
    </linearGradient>
    <linearGradient
       id="linearGradient28290"
       inkscape:swatch="solid">
      <stop
         style="stop-color:#000000;stop-opacity:1;"
         offset="0"
         id="stop28288" />
    </linearGradient>
    <linearGradient
       inkscape:collect="always"
       xlink:href="#linearGradient15490"
       id="linearGradient15492"
       x1="81.213264"
       y1="105.75672"
       x2="93.821518"
       y2="92.879257"
       gradientUnits="userSpaceOnUse" />
    <linearGradient
       inkscape:collect="always"
       xlink:href="#linearGradient15490"
       id="linearGradient986"
       gradientUnits="userSpaceOnUse"
       x1="81.213264"
       y1="105.75672"
       x2="93.821518"
       y2="92.879257" />
    <linearGradient
       inkscape:collect="always"
       xlink:href="#linearGradient15490"
       id="linearGradient988"
       gradientUnits="userSpaceOnUse"
       x1="81.213264"
       y1="105.75672"
       x2="93.821518"
       y2="92.879257" />
    <linearGradient
       inkscape:collect="always"
       xlink:href="#linearGradient15490"
       id="linearGradient990"
       gradientUnits="userSpaceOnUse"
       x1="81.213264"
       y1="105.75672"
       x2="93.821518"
       y2="92.879257" />
    <linearGradient
       inkscape:collect="always"
       xlink:href="#linearGradient15490"
       id="linearGradient992"
       gradientUnits="userSpaceOnUse"
       x1="81.213264"
       y1="105.75672"
       x2="93.821518"
       y2="92.879257" />
    <linearGradient
       inkscape:collect="always"
       xlink:href="#linearGradient15490"
       id="linearGradient994"
       gradientUnits="userSpaceOnUse"
       x1="81.213264"
       y1="105.75672"
       x2="93.821518"
       y2="92.879257" />
    <linearGradient
       inkscape:collect="always"
       xlink:href="#linearGradient15490"
       id="linearGradient996"
       gradientUnits="userSpaceOnUse"
       x1="81.213264"
       y1="105.75672"
       x2="93.821518"
       y2="92.879257" />
    <linearGradient
       inkscape:collect="always"
       xlink:href="#linearGradient15490"
       id="linearGradient998"
       gradientUnits="userSpaceOnUse"
       x1="81.213264"
       y1="105.75672"
       x2="93.821518"
       y2="92.879257" />
  </defs>
  <g
     inkscape:label="Layer 1"
     inkscape:groupmode="layer"
     id="layer1">
    <g
       id="g11543">
      <ellipse
         style="mix-blend-mode:normal;fill:none;fill-opacity:1;stroke:#000000;stroke-width:0.456;stroke-linecap:butt;stroke-linejoin:round;stroke-miterlimit:1.5;stroke-dasharray:10.944,10.944;stroke-dashoffset:0.13679999;stroke-opacity:1"
         id="path24964"
         cx="104.89461"
         cy="120.12495"
         rx="6.8081045"
         ry="7.0013876" />
      <text
         xml:space="preserve"
         style="font-size:7.76111111px;line-height:1.25;font-family:'Bodoni MT';-inkscape-font-specification:'Bodoni MT';stroke-width:0.264583;font-weight:normal;font-style:normal;font-stretch:normal;font-variant:normal"
         x="101.25272"
         y="133.39594"
         id="text30232"><tspan
           sodipodi:role="line"
           id="tspan30230"
           style="stroke-width:0.264583;font-size:7.76111111px;-inkscape-font-specification:'Bodoni MT';font-family:'Bodoni MT';font-weight:normal;font-style:normal;font-stretch:normal;font-variant:normal"
           x="101.25272"
           y="133.39594" /></text>
      <text
         xml:space="preserve"
         style="font-size:10.5833px;line-height:1.25;font-family:'Bauhaus 93';-inkscape-font-specification:'Bauhaus 93, ';stroke-width:0.264583"
         x="102.07771"
         y="133.74496"
         id="text38598"><tspan
           sodipodi:role="line"
           id="tspan38596"
           style="stroke-width:0.264583" /></text>
      <text
         xml:space="preserve"
         style="font-size:10.5833px;line-height:1.25;font-family:'Berlin Sans FB Demi';-inkscape-font-specification:'Berlin Sans FB Demi';stroke-width:0.264583"
         x="99.221947"
         y="122.06806"
         id="text48244"><tspan
           sodipodi:role="line"
           id="tspan48242"
           style="stroke-width:0.264583"
           x="99.221947"
           y="122.06806" /></text>
      <path
         d="m 100.69026,124.29749 v -1.00769 q 0.40308,0.10336 0.77515,0.10336 0.46508,0 0.61494,-0.25838 0.15503,-0.25322 0.15503,-1.02319 v -6.23733 h -0.91983 v -0.89917 h 2.92487 v 0.89917 h -0.91983 v 6.289 q 0,0.81132 -0.12403,1.2299 -0.11885,0.42374 -0.58394,0.72346 -0.45992,0.29973 -1.09554,0.29973 -0.43924,0 -0.82682,-0.11886 z"
         id="path847"
         style="font-size:10.5833px;line-height:1.25;font-family:Rockwell;-inkscape-font-specification:Rockwell;stroke-width:0.264583" />
      <path
         d="m 105.45481,121.26409 v -5.38983 h -0.93017 v -0.89917 h 2.94038 v 0.89917 h -0.88366 v 5.38983 h 2.20141 v -2.44428 h 1.01285 v 3.34345 h -5.27098 v -0.89917 z"
         id="path849"
         style="font-size:10.5833px;line-height:1.25;font-family:Rockwell;-inkscape-font-specification:Rockwell;stroke-width:0.264583" />
      <path
         id="path950"
         style="font-size:11.7085px;line-height:1.25;font-family:'Yu Gothic UI';-inkscape-font-specification:'Yu Gothic UI';stroke-width:1.10632"
         d="M 394.91992 463.91992 L 394.91992 466.24414 L 410.03906 466.24414 L 412.67383 463.91992 L 394.91992 463.91992 z "
         transform="scale(0.26458333)" />
      <path
         id="path971"
         style="font-size:9.87128px;line-height:1.25;font-family:'Yu Gothic UI';-inkscape-font-specification:'Yu Gothic UI';stroke-width:0.932719"
         d="M 394.84766 468.05078 L 394.84766 470.375 L 405.43945 470.375 L 408.07422 468.05078 L 394.84766 468.05078 z "
         transform="scale(0.26458333)" />
      <ellipse
         style="mix-blend-mode:normal;fill:none;fill-opacity:1;stroke:#ffffff;stroke-width:0.456;stroke-linecap:butt;stroke-linejoin:round;stroke-miterlimit:1.5;stroke-dasharray:10.944, 10.944;stroke-dashoffset:0;stroke-opacity:1"
         id="path24964-6"
         cx="74.8396"
         cy="122.75127"
         rx="6.8081045"
         ry="7.0013876"
         transform="rotate(-3.2419906)" />
      <path
         d="m 77.457268,122.49292 v -1.00769 q 0.40308,0.10336 0.77515,0.10336 0.46508,0 0.61494,-0.25838 0.15503,-0.25322 0.15503,-1.02319 v -6.23733 h -0.91983 v -0.89917 h 2.92487 v 0.89917 h -0.91983 v 6.289 q 0,0.81132 -0.12403,1.2299 -0.11885,0.42374 -0.58394,0.72346 -0.45992,0.29973 -1.09554,0.29973 -0.43924,0 -0.82682,-0.11886 z"
         id="path847-3"
         style="font-size:10.5833px;line-height:1.25;font-family:Rockwell;-inkscape-font-specification:Rockwell;stroke-width:0.264583;fill:#ffffff" />
      <path
         d="m 82.221818,119.45952 v -5.38983 h -0.93017 v -0.89917 h 2.94038 v 0.89917 h -0.88366 v 5.38983 h 2.20141 v -2.44428 h 1.01285 v 3.34345 h -5.27098 v -0.89917 z"
         id="path849-7"
         style="font-size:10.5833px;line-height:1.25;font-family:Rockwell;-inkscape-font-specification:Rockwell;stroke-width:0.264583;fill:#ffffff" />
      <path
         id="path950-6"
         style="font-size:11.7085px;line-height:1.25;font-family:'Yu Gothic UI';-inkscape-font-specification:'Yu Gothic UI';stroke-width:0.292714;fill:#ffffff"
         d="m 81.256238,120.9409 v 0.61495 h 4.00027 l 0.69712,-0.61495 z" />
      <path
         id="path971-6"
         style="font-size:9.87128px;line-height:1.25;font-family:'Yu Gothic UI';-inkscape-font-specification:'Yu Gothic UI';stroke-width:0.246782;fill:#ffffff"
         d="m 81.237118,122.03386 v 0.61495 h 2.80241 l 0.69712,-0.61495 z" />
      <g
         id="g889"
         inkscape:export-filename="G:\Projekte\Vue\my_lp\src\assets\logo\my_lp_logo.png"
         inkscape:export-xdpi="924.59943"
         inkscape:export-ydpi="924.59943">
        <ellipse
           style="mix-blend-mode:normal;fill:none;fill-opacity:1;stroke:#ffffff;stroke-width:0.456;stroke-linecap:butt;stroke-linejoin:round;stroke-miterlimit:1.5;stroke-dasharray:10.944, 10.944;stroke-dashoffset:0;stroke-opacity:1"
           id="path24964-6-6"
           cx="58.41341"
           cy="101.73266"
           rx="6.8081045"
           ry="7.0013876"
           transform="rotate(-3.2419906)" />
        <path
           d="m 59.868693,102.4369 v -1.00769 q 0.40308,0.10336 0.77515,0.10336 0.46508,0 0.61494,-0.25838 0.15503,-0.25322 0.15503,-1.02319 v -6.237329 h -0.91983 v -0.89917 h 2.92487 v 0.89917 h -0.91983 v 6.288999 q 0,0.81132 -0.12403,1.2299 -0.11885,0.42374 -0.58394,0.72346 -0.45992,0.29973 -1.09554,0.29973 -0.43924,0 -0.82682,-0.11886 z"
           id="path847-3-3"
           style="font-size:10.5833px;line-height:1.25;font-family:Rockwell;-inkscape-font-specification:Rockwell;fill:#ffffff;stroke-width:0.264583" />
        <path
           d="m 64.633243,99.403501 v -5.38983 h -0.93017 v -0.89917 h 2.94038 v 0.89917 h -0.88366 v 5.38983 h 2.20141 v -2.44428 h 1.01285 v 3.343449 h -5.27098 v -0.899169 z"
           id="path849-7-5"
           style="font-size:10.5833px;line-height:1.25;font-family:Rockwell;-inkscape-font-specification:Rockwell;fill:#ffffff;stroke-width:0.264583" />
        <path
           id="path950-6-5"
           style="font-size:11.7085px;line-height:1.25;font-family:'Yu Gothic UI';-inkscape-font-specification:'Yu Gothic UI';fill:#ffffff;stroke-width:0.292714"
           d="m 63.667663,100.88488 v 0.61495 h 4.00027 l 0.69712,-0.61495 z" />
        <path
           id="path971-6-5"
           style="font-size:9.87128px;line-height:1.25;font-family:'Yu Gothic UI';-inkscape-font-specification:'Yu Gothic UI';fill:#ffffff;stroke-width:0.246782"
           d="m 63.648543,101.97784 v 0.61495 h 2.80241 l 0.69712,-0.61495 z" />
      </g>
      <g
         id="g7934"
         style="opacity:0.918;fill:url(#linearGradient15492);fill-opacity:1"
         inkscape:export-filename="G:\Projekte\Vue\my_lp\public\img\icon-32.png"
         inkscape:export-xdpi="56.250557"
         inkscape:export-ydpi="56.250557"
         transform="matrix(1.0276198,0,0,1,-2.0377771,0)">
        <g
           id="g7793"
           style="fill:url(#linearGradient998);fill-opacity:1">
          <g
             id="g3965"
             style="fill:url(#linearGradient996);fill-opacity:1">
            <path
               style="color:#000000;fill:url(#linearGradient986);fill-opacity:1;stroke-linejoin:round;stroke-miterlimit:1.5;stroke-dasharray:10.944, 10.944;-inkscape-stroke:none"
               d="m 81.5625,96.757812 -0.175781,0.0039 a 0.2280228,0.2280228 0 0 0 -0.0059,0 l -0.175781,0.0059 a 0.2280228,0.2280228 0 0 0 -0.0059,0 l -0.171875,0.01172 a 0.2280228,0.2280228 0 0 0 -0.0059,0 l -0.173828,0.01563 a 0.2280228,0.2280228 0 0 0 -0.0059,0.002 l -0.169922,0.01953 a 0.2280228,0.2280228 0 0 0 -0.0059,0 l -0.169922,0.02539 a 0.2280228,0.2280228 0 0 0 -0.0059,0 l -0.167968,0.0293 a 0.2280228,0.2280228 0 0 0 -0.0059,0.002 l -0.167969,0.03125 a 0.2280228,0.2280228 0 0 0 -0.0059,0.002 l -0.164062,0.03711 a 0.2280228,0.2280228 0 0 0 -0.0059,0.002 l -0.164062,0.04102 a 0.2280228,0.2280228 0 0 0 -0.0059,0 l -0.162109,0.04687 a 0.2280228,0.2280228 0 0 0 -0.0059,0 l -0.160157,0.05078 a 0.2280228,0.2280228 0 0 0 -0.0059,0 l -0.160156,0.05469 a 0.2280228,0.2280228 0 0 0 -0.0039,0.002 l -0.158203,0.05664 a 0.2280228,0.2280228 0 0 0 -0.0059,0.002 l -0.154297,0.06055 a 0.2280228,0.2280228 0 0 0 -0.0059,0.002 l -0.154297,0.06445 a 0.2280228,0.2280228 0 0 0 -0.0039,0.002 l -0.152344,0.06836 a 0.2280228,0.2280228 0 0 0 -0.0059,0.002 l -0.148437,0.07227 a 0.2280228,0.2280228 0 0 0 -0.0059,0.0039 l -0.148438,0.07422 a 0.2280228,0.2280228 0 0 0 -0.0039,0.0039 l -0.146485,0.07813 a 0.2280228,0.2280228 0 0 0 -0.0039,0.0039 l -0.144531,0.08203 a 0.2280228,0.2280228 0 0 0 -0.0039,0.002 l -0.142578,0.08594 a 0.2280228,0.2280228 0 0 0 -0.0039,0.0039 l -0.138672,0.08984 a 0.2280228,0.2280228 0 0 0 -0.0059,0.002 l -0.136719,0.09375 a 0.2280228,0.2280228 0 0 0 -0.0039,0.002 l -0.134766,0.0957 a 0.2280228,0.2280228 0 0 0 -0.0059,0.0039 l -0.130859,0.09961 a 0.2280228,0.2280228 0 0 0 -0.0039,0.0039 l -0.130859,0.101562 a 0.2280228,0.2280228 0 0 0 -0.0039,0.0039 l -0.126953,0.105469 a 0.2280228,0.2280228 0 0 0 -0.0039,0.0039 l -0.125,0.107422 a 0.2280228,0.2280228 0 0 0 -0.0039,0.0039 l -0.123047,0.111328 a 0.2280228,0.2280228 0 0 0 -0.0039,0.0039 l -0.119141,0.115234 a 0.2280228,0.2280228 0 0 0 -0.0039,0.0039 l -0.117187,0.117187 a 0.2280228,0.2280228 0 0 0 -0.0039,0.0039 L 76.470703,99 a 0.2280228,0.2280228 0 0 0 -0.002,0.0039 l -0.111328,0.123047 a 0.2280228,0.2280228 0 0 0 -0.0039,0.0039 L 76.2441,99.2578 a 0.2280228,0.2280228 0 0 0 -0.0039,0.0039 l -0.105468,0.126953 a 0.2280228,0.2280228 0 0 0 -0.002,0.0059 l -0.103515,0.13086 a 0.2280228,0.2280228 0 0 0 -0.0039,0.0039 l -0.09766,0.132812 a 0.2280228,0.2280228 0 0 0 -0.0039,0.0039 l -0.09766,0.136718 a 0.2280228,0.2280228 0 0 0 -0.002,0.0039 l -0.09375,0.138671 a 0.2280228,0.2280228 0 0 0 -0.002,0.0059 l -0.0918,0.140626 a 0.2280228,0.2280228 0 0 0 -0.002,0.004 l -0.08789,0.14258 a 0.2280228,0.2280228 0 0 0 -0.002,0.006 l -0.08398,0.14453 a 0.2280228,0.2280228 0 0 0 -0.002,0.006 l -0.08008,0.14649 a 0.2280228,0.2280228 0 0 0 -0.0039,0.006 l -0.07617,0.15039 a 0.2280228,0.2280228 0 0 0 -0.002,0.004 l -0.07422,0.15235 a 0.2280228,0.2280228 0 0 0 -0.002,0.004 l -0.07031,0.1543 a 0.2280228,0.2280228 0 0 0 -0.002,0.006 l -0.06641,0.15625 a 0.2280228,0.2280228 0 0 0 -0.002,0.004 l -0.0625,0.15821 a 0.2280228,0.2280228 0 0 0 -0.002,0.006 l -0.05859,0.16015 a 0.2280228,0.2280228 0 0 0 -0.002,0.004 l -0.05664,0.16211 a 0.2280228,0.2280228 0 0 0 -0.002,0.006 l -0.05078,0.16406 a 0.2280228,0.2280228 0 0 0 -0.002,0.004 l -0.04687,0.16601 a 0.2280228,0.2280228 0 0 0 -0.002,0.006 L 74.75,102.17969 a 0.2280228,0.2280228 0 0 0 0,0.006 l -0.04102,0.16797 a 0.2280228,0.2280228 0 0 0 0,0.006 l -0.03711,0.16992 a 0.2280228,0.2280228 0 0 0 0,0.006 l -0.0332,0.17187 a 0.2280228,0.2280228 0 0 0 0,0.006 l -0.02734,0.17188 a 0.2280228,0.2280228 0 0 0 -0.002,0.006 l -0.02344,0.17382 a 0.2280228,0.2280228 0 0 0 0,0.006 l -0.01953,0.17578 a 0.2280228,0.2280228 0 0 0 -0.002,0.006 l -0.01563,0.17774 a 0.2280228,0.2280228 0 0 0 0,0.006 l -0.0098,0.17773 a 0.2280228,0.2280228 0 0 0 -0.002,0.006 l -0.0059,0.16797 0.457031,0.0176 0.0059,-0.16602 0.0098,-0.17187 0.01563,-0.17188 0.01758,-0.16992 0.02344,-0.16992 0.02734,-0.16797 0.03125,-0.16602 0.03516,-0.16406 0.03906,-0.16406 0.04102,-0.16211 0.04687,-0.1582 0.05078,-0.15821 0.05273,-0.1582 0.05664,-0.1543 0.0625,-0.15234 0.0625,-0.15039 0.06836,-0.15039 0.07031,-0.14649 0.07617,-0.14453 0.07617,-0.14453 0.08203,-0.14062 0.08398,-0.13868 0.08789,-0.13476 0.08984,-0.13477 0.09375,-0.130856 0.0957,-0.128907 0.09961,-0.126953 0.101563,-0.125 0.105469,-0.121093 0.107421,-0.119141 0.109375,-0.117188 0.113282,-0.113281 0.115234,-0.109375 0.119141,-0.109375 0.121093,-0.103515 0.123047,-0.103516 0.125,-0.09766 0.126953,-0.0957 0.13086,-0.09375 0.132812,-0.08984 0.134766,-0.08594 0.136719,-0.08398 0.138672,-0.07813 0.140625,-0.07617 0.142578,-0.07422 0.144531,-0.06836 0.146484,-0.06641 0.148438,-0.0625 0.15039,-0.05859 0.152344,-0.05469 0.152344,-0.05273 0.15625,-0.04687 0.15625,-0.04297 0.158203,-0.04102 0.160156,-0.03516 0.160157,-0.03125 0.164062,-0.02734 0.164063,-0.02344 0.164062,-0.01953 0.166016,-0.01563 0.167968,-0.01172 0.167969,-0.0059 0.169922,-0.002 0.169922,0.002 0.111328,0.0039 0.01758,-0.455078 -0.113281,-0.0039 a 0.2280228,0.2280228 0 0 0 -0.0059,0 l -0.175782,-0.0039 a 0.2280228,0.2280228 0 0 0 -0.0059,0 z m 6.582031,7.226568 -0.002,0.17773 -0.0059,0.17383 -0.0098,0.17383 -0.01563,0.17187 -0.01953,0.16992 -0.02344,0.16992 -0.02539,0.16602 -0.03125,0.16602 -0.03516,0.16601 -0.03906,0.16211 -0.04297,0.16211 -0.04492,0.16016 -0.05078,0.1582 -0.05273,0.15625 -0.05859,0.1543 -0.06055,0.15429 -0.06445,0.15039 -0.06641,0.14844 -0.07227,0.14844 -0.07422,0.14453 -0.07813,0.14258 -0.08008,0.14062 -0.08398,0.13868 -0.08789,0.13671 -0.08984,0.13477 -0.09375,0.13086 -0.0957,0.12891 -0.09961,0.12695 -0.101563,0.12305 -0.105468,0.12304 -0.107422,0.11914 -0.111328,0.11524 -0.111328,0.11328 -0.117188,0.11133 -0.117187,0.10742 -0.121094,0.10547 -0.123047,0.10156 -0.125,0.0996 -0.128906,0.0957 -0.128907,0.0918 -0.132812,0.0898 -0.134766,0.0879 -0.136718,0.082 -0.138672,0.0801 -0.140625,0.0762 -0.142578,0.0723 -0.144532,0.0703 -0.146484,0.0664 -0.148438,0.0625 -0.15039,0.0586 -0.152344,0.0547 -0.154297,0.0508 -0.154297,0.0469 -0.15625,0.0449 -0.158203,0.0391 -0.160156,0.0352 -0.162109,0.0332 -0.16211,0.0273 -0.164062,0.0234 -0.164063,0.0195 -0.167969,0.0156 -0.166015,0.01 -0.169922,0.008 -0.169922,0.002 -0.0918,-0.002 -0.0059,0.45703 h 0.0957 a 0.2280228,0.2280228 0 0 0 0.0059,0 l 0.175782,-0.002 a 0.2280228,0.2280228 0 0 0 0.0059,0 l 0.173828,-0.008 a 0.2280228,0.2280228 0 0 0 0.0059,0 l 0.173829,-0.01 a 0.2280228,0.2280228 0 0 0 0.0059,-0.002 l 0.171875,-0.0156 a 0.2280228,0.2280228 0 0 0 0.0059,0 l 0.171875,-0.0195 a 0.2280228,0.2280228 0 0 0 0.0059,-0.002 l 0.169922,-0.0234 a 0.2280228,0.2280228 0 0 0 0.0059,-0.002 l 0.167969,-0.0273 a 0.2280228,0.2280228 0 0 0 0.0059,-0.002 l 0.166016,-0.0332 a 0.2280228,0.2280228 0 0 0 0.0059,0 l 0.166016,-0.0371 a 0.2280228,0.2280228 0 0 0 0.0059,-0.002 l 0.164063,-0.041 a 0.2280228,0.2280228 0 0 0 0.0059,-0.002 l 0.162109,-0.0449 a 0.2280228,0.2280228 0 0 0 0.0059,-0.002 l 0.160156,-0.0488 a 0.2280228,0.2280228 0 0 0 0.0059,-0.002 l 0.158203,-0.0527 a 0.2280228,0.2280228 0 0 0 0.0059,-0.002 l 0.158203,-0.0566 a 0.2280228,0.2280228 0 0 0 0.0039,-0.002 l 0.15625,-0.0605 a 0.2280228,0.2280228 0 0 0 0.0059,-0.004 l 0.152343,-0.0645 a 0.2280228,0.2280228 0 0 0 0.0059,-0.002 l 0.152343,-0.0683 a 0.2280228,0.2280228 0 0 0 0.0039,-0.002 l 0.15039,-0.0723 a 0.2280228,0.2280228 0 0 0 0.0059,-0.002 l 0.146484,-0.0762 a 0.2280228,0.2280228 0 0 0 0.0059,-0.002 l 0.146485,-0.0801 a 0.2280228,0.2280228 0 0 0 0.0039,-0.002 l 0.144531,-0.082 a 0.2280228,0.2280228 0 0 0 0.0039,-0.004 l 0.142578,-0.0859 a 0.2280228,0.2280228 0 0 0 0.0039,-0.002 l 0.138672,-0.0898 a 0.2280228,0.2280228 0 0 0 0.0059,-0.004 L 85.5,109.98242 a 0.2280228,0.2280228 0 0 0 0.0039,-0.004 l 0.134766,-0.0957 a 0.2280228,0.2280228 0 0 0 0.0039,-0.002 l 0.132813,-0.0996 a 0.2280228,0.2280228 0 0 0 0.0039,-0.004 l 0.130859,-0.10156 a 0.2280228,0.2280228 0 0 0 0.0039,-0.004 l 0.126954,-0.10547 a 0.2280228,0.2280228 0 0 0 0.0039,-0.004 l 0.125,-0.10937 a 0.2280228,0.2280228 0 0 0 0.0039,-0.002 l 0.123047,-0.11328 a 0.2280228,0.2280228 0 0 0 0.0039,-0.002 l 0.119141,-0.11524 a 0.2280228,0.2280228 0 0 0 0.0039,-0.004 l 0.117188,-0.11719 a 0.2280228,0.2280228 0 0 0 0.0039,-0.004 l 0.113281,-0.12109 a 0.2280228,0.2280228 0 0 0 0.0039,-0.004 l 0.111328,-0.12304 a 0.2280228,0.2280228 0 0 0 0.0039,-0.004 l 0.107422,-0.125 a 0.2280228,0.2280228 0 0 0 0.0039,-0.004 l 0.105469,-0.1289 a 0.2280228,0.2280228 0 0 0 0.0039,-0.004 l 0.103515,-0.13086 a 0.2280228,0.2280228 0 0 0 0.002,-0.004 l 0.09961,-0.13477 a 0.2280228,0.2280228 0 0 0 0.0039,-0.004 l 0.0957,-0.13671 a 0.2280228,0.2280228 0 0 0 0.0039,-0.004 l 0.09375,-0.13867 a 0.2280228,0.2280228 0 0 0 0.002,-0.004 l 0.08984,-0.14062 a 0.2280228,0.2280228 0 0 0 0.0039,-0.006 l 0.08594,-0.14258 a 0.2280228,0.2280228 0 0 0 0.0039,-0.004 l 0.08203,-0.14648 a 0.2280228,0.2280228 0 0 0 0.0039,-0.004 l 0.08008,-0.14844 a 0.2280228,0.2280228 0 0 0 0.002,-0.004 l 0.07813,-0.15039 a 0.2280228,0.2280228 0 0 0 0.002,-0.004 l 0.07227,-0.15234 a 0.2280228,0.2280228 0 0 0 0.0039,-0.006 l 0.06836,-0.1543 a 0.2280228,0.2280228 0 0 0 0.0039,-0.004 l 0.06641,-0.15625 a 0.2280228,0.2280228 0 0 0 0.002,-0.006 l 0.0625,-0.15821 a 0.2280228,0.2280228 0 0 0 0.002,-0.004 l 0.05859,-0.16016 a 0.2280228,0.2280228 0 0 0 0.002,-0.006 l 0.05469,-0.16211 a 0.2280228,0.2280228 0 0 0 0.002,-0.004 l 0.05273,-0.16406 a 0.2280228,0.2280228 0 0 0 0.002,-0.006 l 0.04687,-0.16406 a 0.2280228,0.2280228 0 0 0 0.002,-0.006 l 0.04297,-0.16797 a 0.2280228,0.2280228 0 0 0 0.002,-0.004 l 0.03906,-0.16993 a 0.2280228,0.2280228 0 0 0 0.002,-0.004 l 0.03711,-0.17188 a 0.2280228,0.2280228 0 0 0 0,-0.004 l 0.03125,-0.17188 a 0.2280228,0.2280228 0 0 0 0.002,-0.006 l 0.02734,-0.17383 a 0.2280228,0.2280228 0 0 0 0.002,-0.006 l 0.02344,-0.17382 a 0.2280228,0.2280228 0 0 0 0,-0.006 l 0.01953,-0.17578 a 0.2280228,0.2280228 0 0 0 0,-0.006 l 0.01563,-0.17578 a 0.2280228,0.2280228 0 0 0 0,-0.006 l 0.01172,-0.17969 a 0.2280228,0.2280228 0 0 0 0,-0.004 l 0.0078,-0.17969 a 0.2280228,0.2280228 0 0 0 0,-0.006 l 0.002,-0.18165 z"
               id="path24964-6-6-3"
               transform="rotate(-3.2419906)" />
            <path
               d="m 83.110938,103.37916 v -1.00769 q 0.40308,0.10336 0.77515,0.10336 0.46508,0 0.61494,-0.25838 0.15503,-0.25322 0.15503,-1.02319 v -6.237335 h -0.91983 v -0.89917 h 2.92487 v 0.89917 h -0.91983 v 6.289005 q 0,0.81132 -0.12403,1.2299 -0.11885,0.42374 -0.58394,0.72346 -0.45992,0.29973 -1.09554,0.29973 -0.43924,0 -0.82682,-0.11886 z"
               id="path847-3-3-2"
               style="font-size:10.5833px;line-height:1.25;font-family:Rockwell;-inkscape-font-specification:Rockwell;fill:url(#linearGradient988);fill-opacity:1;stroke-width:0.264583" />
            <path
               d="m 87.875488,100.34576 v -5.389835 h -0.93017 v -0.89917 h 2.94038 v 0.89917 h -0.88366 v 5.389835 h 2.20141 v -2.444285 h 1.01285 v 3.343455 h -5.27098 v -0.89917 z"
               id="path849-7-5-9"
               style="font-size:10.5833px;line-height:1.25;font-family:Rockwell;-inkscape-font-specification:Rockwell;fill:url(#linearGradient990);fill-opacity:1;stroke-width:0.264583" />
            <path
               id="path950-6-5-9"
               style="font-size:11.7085px;line-height:1.25;font-family:'Yu Gothic UI';-inkscape-font-specification:'Yu Gothic UI';fill:url(#linearGradient992);fill-opacity:1;stroke-width:0.292714"
               d="m 86.909908,101.82714 v 0.61495 h 4.00027 l 0.69712,-0.61495 z" />
            <path
               id="path971-6-5-4"
               style="font-size:9.87128px;line-height:1.25;font-family:'Yu Gothic UI';-inkscape-font-specification:'Yu Gothic UI';fill:url(#linearGradient994);fill-opacity:1;stroke-width:0.246782"
               d="m 86.890788,102.9201 v 0.61495 h 2.80241 l 0.69712,-0.61495 z" />
          </g>
        </g>
      </g>
    </g>
  </g>
</svg>
